<svg xmlns="http://www.w3.org/2000/svg" version="1.1" xmlns:xlink="http://www.w3.org/1999/xlink" xmlns:svgjs="http://svgjs.com/svgjs" width="512" height="512" x="0" y="0" viewBox="0 0 512.002 512.002" style="enable-background:new 0 0 512 512" xml:space="preserve" class=""><g>
<g xmlns="http://www.w3.org/2000/svg">
	<g>
		<path d="M187.141,270.177c-4.142,0-7.5,3.358-7.5,7.5v12.462c0,4.143,3.358,7.5,7.5,7.5c4.142,0,7.5-3.357,7.5-7.5v-12.462    C194.641,273.535,191.284,270.177,187.141,270.177z" fill="#000000" data-original="#000000" class=""></path>
	</g>
</g>
<g xmlns="http://www.w3.org/2000/svg">
	<g>
		<path d="M324.859,270.177c-4.142,0-7.5,3.358-7.5,7.5v12.462c0,4.143,3.358,7.5,7.5,7.5c4.142,0,7.5-3.357,7.5-7.5v-12.462    C332.359,273.535,329.001,270.177,324.859,270.177z" fill="#000000" data-original="#000000" class=""></path>
	</g>
</g>
<g xmlns="http://www.w3.org/2000/svg">
	<g>
		<path d="M283.133,282.475c-3.119-2.726-7.856-2.408-10.583,0.711c-4.031,4.611-10.063,7.256-16.549,7.256    c-6.486,0-12.519-2.645-16.549-7.256c-2.727-3.119-7.464-3.437-10.583-0.711s-3.437,7.464-0.711,10.583    c6.88,7.871,17.028,12.385,27.843,12.385c10.815,0,20.964-4.514,27.843-12.384C286.57,289.939,286.252,285.201,283.133,282.475z" fill="#000000" data-original="#000000" class=""></path>
	</g>
</g>
<g xmlns="http://www.w3.org/2000/svg">
	<g>
		<path d="M412.842,240.873c3.693-7.621,8.476-14.769,14.558-21.742c35.525-40.732,38.417-73.661,36.978-89.667    c-3.67-40.821-40.501-69.637-80.15-69.637c-14.493,0-28.765,2.833-41.795,5.8c0.629-5.377,1.298-10.293,1.937-14.591h4.5    c14.071,0,25.519-11.448,25.519-25.519C374.389,11.446,362.941,0,348.87,0H232.146c-4.142,0-7.5,3.358-7.5,7.5s3.358,7.5,7.5,7.5    H348.87c5.8,0,10.519,4.718,10.519,10.519c0,5.801-4.719,10.519-10.519,10.519h-10.923H174.055h-10.924    c-5.8,0-10.518-4.718-10.518-10.519c0-5.801,4.719-10.519,10.519-10.519h39.015c4.142,0,7.5-3.358,7.5-7.5s-3.358-7.5-7.5-7.5    h-39.015c-14.071,0-25.518,11.448-25.518,25.519s11.447,25.519,25.518,25.519h4.501c0.639,4.297,1.308,9.214,1.937,14.591    c-13.028-2.967-27.301-5.8-41.794-5.8c-39.788,0-76.486,28.862-80.151,69.637c-1.439,16.004,1.453,48.934,36.978,89.665    c6.082,6.974,10.866,14.122,14.558,21.742c-6.405,9.65-11.704,20.623-14.89,33.37c-10.253,41.013,4.171,89.747,44.098,148.992    c17.977,26.675,38.426,51.652,59.858,75.607c7.483,8.363,18.232,13.16,29.492,13.16h76.565c11.26,0,22.009-4.796,29.492-13.16    c21.432-23.953,41.889-48.932,59.859-75.609c39.926-59.243,54.351-107.978,44.097-148.99    C424.545,261.496,419.247,250.523,412.842,240.873z M340.754,82.814c0.037-0.48,0.076-0.956,0.115-1.432    c27.79-6.476,59.905-12.817,84.192,6.592c42.865,34.255,20.903,87.052-8.965,121.296c-5.2,5.961-9.587,12.057-13.255,18.431    c-3.647-4.255-7.452-8.231-11.292-11.976c3.674-5.862,7.888-11.528,12.573-16.9c23.744-27.223,46.061-70.435,11.02-98.438    c-20.502-16.384-49.383-8.501-72.357-3.136c-0.992,0.231-1.961,0.457-2.913,0.678C340.064,92.885,340.36,87.846,340.754,82.814z     M346.194,111.859c17.786-4.153,43.409-12.677,59.581,0.246c27.199,21.734,4.492,56.855-12.958,76.862    c-4.569,5.239-8.729,10.743-12.451,16.428c-2.123-1.884-4.275-3.742-6.427-5.603c-5.05-4.369-10.096-8.757-14.752-13.531    c-15.735-16.147-15.632-38.921-19.077-59.588c-0.275-4.409-0.42-8.86-0.466-13.301    C341.762,112.89,343.921,112.389,346.194,111.859z M329.21,51.037c-0.963,6.695-1.966,14.686-2.789,23.44    c-0.005,0.046-0.019,0.089-0.023,0.135c-1.381,14.833-2.099,30.031-1.628,45.031H187.232c0.473-15.049-0.237-30.046-1.628-45.031    c-0.004-0.047-0.019-0.092-0.024-0.139c-0.823-8.752-1.825-16.741-2.788-23.436H329.21z M328.846,155.68H183.157    c1.397-6.467,2.452-13.497,3.158-21.037h139.373C326.394,142.184,327.449,149.214,328.846,155.68z M95.907,209.27    c-31.864-36.532-34.567-64.839-33.343-78.461c2.982-33.19,33.227-55.981,65.211-55.981c14.666,0,29.826,3.401,43.359,6.555    c0.037,0.461,0.075,0.922,0.111,1.387c0.098,1.263,0.919,15.16,0.886,15.16c-0.952-0.221-1.921-0.447-2.913-0.678    c-14.557-3.399-28.308-6.609-41.271-6.609c-23.943,0-47.305,16.513-49.558,41.589c-1.698,18.887,9.051,43.16,29.491,66.595    c4.685,5.372,8.899,11.038,12.573,16.899c-3.84,3.745-7.645,7.721-11.292,11.976C105.493,221.327,101.105,215.231,95.907,209.27z     M172.357,113.372c-0.046,4.441-0.191,8.892-0.466,13.303c-1.253,20.01-4.366,44.488-19.076,59.585    c-1.386,1.423-21.352,18.872-21.18,19.135c-3.72-5.686-7.88-11.189-12.45-16.428c-17.504-20.069-27.169-40.775-25.856-55.391    c1.572-17.496,18.391-27.933,34.618-27.933c11.236,0,24.169,3.02,37.862,6.216C168.081,112.389,170.238,112.89,172.357,113.372z     M312.597,488.838c-4.641,5.187-11.316,8.162-18.313,8.162h-76.565c-6.998,0-13.673-2.975-18.313-8.162    c-7.958-8.894-15.528-17.684-22.617-26.26h158.426C328.127,471.152,320.556,479.943,312.597,488.838z M373.405,411.542h-41.17    c-4.142,0-7.5,3.358-7.5,7.5c0,4.142,3.358,7.5,7.5,7.5h30.834c-4.911,6.862-10.186,13.896-15.777,21.037H164.709    c-5.592-7.141-10.867-14.174-15.777-21.037h153.302c4.142,0,7.5-3.358,7.5-7.5c0-4.142-3.358-7.5-7.5-7.5H138.597    C102.855,357.553,89.842,313.8,98.823,277.88c4.935-19.739,17.189-36.681,31.495-50.782    c18.275-18.012,39.641-31.225,48.626-56.418h154.114c6.164,17.283,17.521,28.606,31.041,40.396    c21.157,18.45,42.032,38.605,49.081,66.803C422.159,313.799,409.146,357.552,373.405,411.542z" fill="#000000" data-original="#000000" class=""></path>
	</g>
</g>
<g xmlns="http://www.w3.org/2000/svg">
</g>
<g xmlns="http://www.w3.org/2000/svg">
</g>
<g xmlns="http://www.w3.org/2000/svg">
</g>
<g xmlns="http://www.w3.org/2000/svg">
</g>
<g xmlns="http://www.w3.org/2000/svg">
</g>
<g xmlns="http://www.w3.org/2000/svg">
</g>
<g xmlns="http://www.w3.org/2000/svg">
</g>
<g xmlns="http://www.w3.org/2000/svg">
</g>
<g xmlns="http://www.w3.org/2000/svg">
</g>
<g xmlns="http://www.w3.org/2000/svg">
</g>
<g xmlns="http://www.w3.org/2000/svg">
</g>
<g xmlns="http://www.w3.org/2000/svg">
</g>
<g xmlns="http://www.w3.org/2000/svg">
</g>
<g xmlns="http://www.w3.org/2000/svg">
</g>
<g xmlns="http://www.w3.org/2000/svg">
</g>
</g></svg>