<svg xmlns="http://www.w3.org/2000/svg" version="1.1" xmlns:xlink="http://www.w3.org/1999/xlink" xmlns:svgjs="http://svgjs.com/svgjs" width="512" height="512" x="0" y="0" viewBox="0 0 512.002 512.002" style="enable-background:new 0 0 512 512" xml:space="preserve" class=""><g>
<g xmlns="http://www.w3.org/2000/svg">
	<path style="" d="M132.883,316.923c-0.06,0-0.118,0-0.178-0.001c-8.529-0.097-15.365-7.089-15.269-15.617   c0.442-39.226-7.433-64.462-27.182-87.105c-33.695-38.632-36.492-69.25-35.161-84.063c1.691-18.81,10.831-34.967,27.165-48.021   c28.259-22.584,63.753-14.299,92.276-7.641c9.076,2.119,17.649,4.12,25.317,5.07c8.465,1.049,14.478,8.761,13.429,17.226   s-8.767,14.477-17.226,13.429c-9.296-1.151-19.08-3.435-28.542-5.644c-25.413-5.933-49.418-11.537-65.97,1.691   c-9.633,7.699-14.764,16.418-15.684,26.657c-1.516,16.861,8.571,39.092,27.674,60.994c31.323,35.913,35.164,74.625,34.79,107.757   C148.228,310.122,141.331,316.922,132.883,316.923z" fill="#ff8b5d" data-original="#ff8b5d" class=""></path>
	<path style="" d="M379.119,316.923c0.06,0,0.118,0,0.178-0.001c8.529-0.097,15.365-7.089,15.269-15.617   c-0.442-39.226,7.433-64.462,27.181-87.105c33.695-38.632,36.492-69.25,35.161-84.063c-1.691-18.81-10.831-34.967-27.165-48.021   c-28.259-22.584-63.753-14.299-92.276-7.641c-9.076,2.119-17.649,4.12-25.317,5.07c-8.465,1.049-14.478,8.761-13.429,17.226   s8.767,14.477,17.226,13.429c9.296-1.151,19.08-3.435,28.542-5.644c25.413-5.933,49.418-11.537,65.97,1.691   c9.633,7.699,14.764,16.418,15.684,26.657c1.516,16.861-8.571,39.092-27.674,60.994c-31.323,35.913-35.164,74.625-34.79,107.757   C363.774,310.122,370.671,316.922,379.119,316.923z" fill="#ff8b5d" data-original="#ff8b5d" class=""></path>
</g>
<path xmlns="http://www.w3.org/2000/svg" style="" d="M256.001,383.004l-121.413,36.037c7.671,11.388,16.464,23.383,26.482,36.037l94.931,24.711  l94.931-24.711c10.018-12.654,18.811-24.649,26.482-36.037L256.001,383.004z" fill="#efedee" data-original="#efedee" class=""></path>
<path xmlns="http://www.w3.org/2000/svg" style="" d="M191.07,455.078c-10.018-12.654-18.811-24.649-26.482-36.037L271,387.456l-15-4.452l-121.413,36.037  c7.671,11.388,16.464,23.383,26.482,36.037L256,479.789l15-3.904L191.07,455.078z" fill="#d4d2d3" data-original="#d4d2d3" class=""></path>
<path xmlns="http://www.w3.org/2000/svg" style="" d="M332.625,127.142L256,97.798l-76.625,29.344c-0.793,12.664-2.584,25.04-5.869,36.037L256,192.523  l82.494-29.344C335.21,152.183,333.418,139.807,332.625,127.142z" fill="#efedee" data-original="#efedee" class=""></path>
<path xmlns="http://www.w3.org/2000/svg" style="" d="M203.508,163.179c3.285-10.996,5.076-23.372,5.869-36.037l61.625-23.6l-15-5.744l-76.625,29.344  c-0.793,12.665-2.584,25.041-5.869,36.037l82.494,29.345l15-5.336L203.508,163.179z" fill="#d4d2d3" data-original="#d4d2d3" class=""></path>
<path xmlns="http://www.w3.org/2000/svg" style="" d="M161.07,455.078c9.726,12.286,20.609,25.196,32.746,38.761c6.08,6.795,14.785,10.661,23.903,10.661  h76.565c9.118,0,17.823-3.865,23.903-10.661c12.138-13.565,23.02-26.475,32.746-38.761H161.07z" fill="#ff8b5d" data-original="#ff8b5d" class=""></path>
<g xmlns="http://www.w3.org/2000/svg">
	<path style="" d="M223.816,493.839c-12.138-13.565-23.02-26.475-32.746-38.761h-30   c9.726,12.286,20.609,25.196,32.746,38.761c6.08,6.795,14.785,10.661,23.903,10.661h30   C238.601,504.5,229.896,500.635,223.816,493.839z" fill="#ea6a3d" data-original="#ea6a3d" class=""></path>
	<path style="" d="M132.704,316.922c0.06,0.001,0.118,0.001,0.178,0.001c8.448-0.001,15.344-6.801,15.44-15.271   c0.374-33.132-3.468-71.844-34.79-107.757c-0.408-0.468-0.806-0.936-1.206-1.404c-7.138,6.497-14.609,13.803-21.641,22.212   c19.428,22.514,27.19,47.665,26.751,86.601C117.34,309.833,124.176,316.826,132.704,316.922z" fill="#ea6a3d" data-original="#ea6a3d" class=""></path>
	<path style="" d="M399.675,192.492c-0.4,0.468-0.798,0.937-1.206,1.404c-31.323,35.913-35.164,74.625-34.79,107.757   c0.096,8.469,6.992,15.27,15.44,15.271c0.06,0,0.118,0,0.178-0.001c8.529-0.097,15.365-7.089,15.269-15.617   c-0.439-38.936,7.323-64.086,26.751-86.601C414.284,206.295,406.813,198.989,399.675,192.492z" fill="#ea6a3d" data-original="#ea6a3d" class=""></path>
</g>
<path xmlns="http://www.w3.org/2000/svg" style="" d="M377.414,419.041H134.588c-100.491-149.11-9.854-193.219,23.599-227.547  c7.022-7.207,11.954-17.04,15.321-28.315h164.987c3.367,11.274,8.299,21.107,15.321,28.315  C387.267,225.822,477.905,269.931,377.414,419.041z" fill="#ff8b5d" data-original="#ff8b5d" class=""></path>
<g xmlns="http://www.w3.org/2000/svg">
	<path style="" d="M188.187,191.494c7.022-7.208,11.954-17.041,15.321-28.315h-30   c-3.367,11.274-8.299,21.107-15.321,28.315c-33.452,34.328-124.09,78.437-23.599,227.547h30   C64.097,269.931,154.734,225.822,188.187,191.494z" fill="#ea6a3d" data-original="#ea6a3d" class=""></path>
	<path style="" d="M315.947,110.199c9.296-1.151,19.08-3.436,28.542-5.644c6.039-1.41,11.996-2.798,17.795-3.922   c0.366-11.269,1.315-22.174,2.421-31.716c-9.451,1.413-18.661,3.556-27.238,5.558c-9.076,2.119-17.649,4.12-25.317,5.07   c-8.465,1.049-14.478,8.761-13.429,17.226C299.77,105.234,307.487,111.246,315.947,110.199z" fill="#ea6a3d" data-original="#ea6a3d" class=""></path>
	<path style="" d="M196.055,110.199c8.459,1.048,16.177-4.964,17.226-13.429s-4.964-16.177-13.429-17.226   c-7.668-0.95-16.241-2.951-25.317-5.07c-8.577-2.002-17.786-4.146-27.238-5.558c1.106,9.543,2.055,20.448,2.421,31.716   c5.799,1.125,11.756,2.513,17.795,3.922C176.976,106.763,186.76,109.047,196.055,110.199z" fill="#ea6a3d" data-original="#ea6a3d" class=""></path>
</g>
<path xmlns="http://www.w3.org/2000/svg" style="" d="M332.625,127.142H179.377c2.914-46.694-7.805-97.3-7.805-97.3H340.43  C340.43,29.843,329.711,80.449,332.625,127.142z" fill="#ff8b5d" data-original="#ff8b5d" class=""></path>
<path xmlns="http://www.w3.org/2000/svg" style="" d="M201.572,29.843h-30c0,0,10.718,50.606,7.804,97.299h30C212.29,80.449,201.572,29.843,201.572,29.843  z" fill="#ea6a3d" data-original="#ea6a3d" class=""></path>
<path xmlns="http://www.w3.org/2000/svg" style="" d="M348.87,7.5H163.132c-9.951,0-18.018,8.067-18.018,18.018l0,0c0,9.951,8.067,18.018,18.018,18.018  H348.87c9.951,0,18.018-8.067,18.018-18.018l0,0C366.888,15.567,358.822,7.5,348.87,7.5z" fill="#efedee" data-original="#efedee" class=""></path>
<path xmlns="http://www.w3.org/2000/svg" style="" d="M185.114,25.518L185.114,25.518c0-9.951,8.067-18.019,18.018-18.019h-40  c-9.951,0-18.018,8.067-18.018,18.019l0,0c0,9.951,8.067,18.019,18.018,18.019h40C193.18,43.537,185.114,35.47,185.114,25.518z" fill="#d4d2d3" data-original="#d4d2d3" class=""></path>
<path xmlns="http://www.w3.org/2000/svg" d="M187.142,270.177c-4.142,0-7.5,3.358-7.5,7.5v12.462c0,4.143,3.358,7.5,7.5,7.5s7.5-3.357,7.5-7.5v-12.462  C194.642,273.535,191.284,270.177,187.142,270.177z" fill="#000000" data-original="#000000" class=""></path>
<path xmlns="http://www.w3.org/2000/svg" d="M324.858,270.177c-4.142,0-7.5,3.358-7.5,7.5v12.462c0,4.143,3.358,7.5,7.5,7.5s7.5-3.357,7.5-7.5v-12.462  C332.358,273.535,329,270.177,324.858,270.177z" fill="#000000" data-original="#000000" class=""></path>
<path xmlns="http://www.w3.org/2000/svg" d="M283.132,282.475c-3.119-2.726-7.856-2.408-10.583,0.711c-4.031,4.611-10.063,7.256-16.549,7.256  c-6.486,0-12.519-2.645-16.549-7.256c-2.727-3.119-7.464-3.437-10.583-0.711s-3.437,7.464-0.711,10.583  c6.88,7.871,17.028,12.385,27.843,12.385c10.815,0,20.964-4.514,27.843-12.384C286.569,289.939,286.251,285.201,283.132,282.475z" fill="#000000" data-original="#000000" class=""></path>
<path xmlns="http://www.w3.org/2000/svg" d="M464.378,129.464c-3.67-40.821-40.501-69.637-80.15-69.637c-14.493,0-28.765,2.833-41.795,5.8  c0.629-5.377,1.298-10.293,1.937-14.591h4.5c14.071,0,25.519-11.448,25.519-25.519S362.94,0,348.869,0H232.146  c-4.142,0-7.5,3.358-7.5,7.5s3.358,7.5,7.5,7.5H348.87c5.8,0,10.519,4.718,10.519,10.519s-4.719,10.519-10.519,10.519h-10.923  H174.055h-10.924c-5.8,0-10.518-4.718-10.518-10.519S157.331,15,163.132,15h39.015c4.142,0,7.5-3.358,7.5-7.5s-3.358-7.5-7.5-7.5  h-39.015c-14.071,0-25.518,11.448-25.518,25.519s11.447,25.519,25.518,25.519h4.501c0.639,4.297,1.308,9.214,1.937,14.591  c-13.028-2.967-27.301-5.8-41.794-5.8c-39.788,0-76.486,28.862-80.151,69.637c-1.439,16.004,1.453,48.934,36.978,89.665  c6.082,6.974,10.866,14.122,14.558,21.742c-6.405,9.65-11.704,20.623-14.89,33.37c-10.253,41.013,4.171,89.747,44.098,148.992  c17.977,26.675,38.426,51.652,59.858,75.607c7.483,8.363,18.232,13.16,29.492,13.16h76.565c11.26,0,22.009-4.796,29.492-13.16  c21.432-23.953,41.889-48.932,59.859-75.609c39.926-59.243,54.351-107.978,44.097-148.99c-3.187-12.747-8.485-23.72-14.89-33.37  c3.693-7.621,8.476-14.769,14.558-21.742C462.924,178.399,465.816,145.47,464.378,129.464z M373.938,199.792  c-5.05-4.369-10.096-8.757-14.752-13.531c-15.735-16.147-15.632-38.921-19.077-59.588c-0.275-4.409-0.42-8.86-0.466-13.301  c2.119-0.482,4.277-0.983,6.55-1.513c17.786-4.153,43.409-12.677,59.581,0.246c27.199,21.734,4.492,56.855-12.958,76.862  c-4.569,5.239-8.729,10.743-12.451,16.428C378.242,203.511,376.09,201.653,373.938,199.792z M131.635,205.395  c-3.72-5.686-7.88-11.189-12.45-16.428c-17.504-20.069-27.169-40.775-25.856-55.391c1.572-17.496,18.391-27.933,34.618-27.933  c11.236,0,24.169,3.02,37.862,6.216c2.272,0.53,4.429,1.031,6.548,1.513c-0.046,4.441-0.191,8.892-0.466,13.303  c-1.253,20.01-4.366,44.488-19.076,59.585C151.428,187.683,131.463,205.132,131.635,205.395z M186.314,134.643h139.373  c0.706,7.541,1.761,14.571,3.158,21.037H183.157C184.553,149.213,185.609,142.183,186.314,134.643z M329.21,51.037  c-0.963,6.695-1.966,14.686-2.789,23.44c-0.005,0.046-0.019,0.089-0.023,0.135c-1.381,14.833-2.099,30.031-1.628,45.031H187.233  c0.473-15.049-0.237-30.046-1.628-45.031c-0.004-0.047-0.019-0.092-0.024-0.139c-0.823-8.752-1.825-16.741-2.788-23.436H329.21z   M95.907,209.27c-31.864-36.532-34.567-64.839-33.343-78.461c2.982-33.19,33.227-55.981,65.211-55.981  c14.666,0,29.826,3.401,43.359,6.555c0.037,0.461,0.075,0.922,0.111,1.387c0.098,1.263,0.919,15.16,0.886,15.16  c-0.952-0.221-1.921-0.447-2.913-0.678c-14.557-3.399-28.308-6.609-41.271-6.609c-23.943,0-47.305,16.513-49.558,41.589  c-1.698,18.887,9.051,43.16,29.491,66.595c4.685,5.372,8.899,11.038,12.573,16.899c-3.84,3.745-7.645,7.721-11.292,11.976  C105.493,221.327,101.106,215.231,95.907,209.27z M312.596,488.838c-4.641,5.187-11.316,8.162-18.313,8.162h-76.565  c-6.998,0-13.673-2.975-18.313-8.162c-7.958-8.894-15.528-17.684-22.617-26.26h158.426  C328.126,471.152,320.555,479.943,312.596,488.838z M373.404,411.542h-41.17c-4.142,0-7.5,3.358-7.5,7.5s3.358,7.5,7.5,7.5h30.834  c-4.911,6.862-10.186,13.896-15.777,21.037H164.71c-5.592-7.141-10.867-14.174-15.777-21.037h153.302c4.142,0,7.5-3.358,7.5-7.5  s-3.358-7.5-7.5-7.5H138.596C102.855,357.553,89.842,313.8,98.822,277.88c4.935-19.739,17.189-36.681,31.495-50.782  c18.275-18.012,39.641-31.225,48.626-56.418h154.114c6.164,17.283,17.521,28.606,31.041,40.396  c21.157,18.45,42.032,38.605,49.081,66.803C422.158,313.799,409.145,357.552,373.404,411.542z M402.84,227.701  c-3.647-4.255-7.452-8.231-11.292-11.976c3.674-5.862,7.888-11.528,12.573-16.9c23.744-27.223,46.061-70.435,11.02-98.438  c-20.502-16.384-49.383-8.501-72.357-3.136c-0.992,0.231-1.961,0.457-2.913,0.678c0.192-5.044,0.488-10.083,0.882-15.115  c0.037-0.48,0.076-0.956,0.115-1.432c27.79-6.476,59.905-12.817,84.192,6.592c42.865,34.255,20.903,87.052-8.965,121.296  C410.895,215.231,406.508,221.327,402.84,227.701z" fill="#000000" data-original="#000000" class=""></path>
<g xmlns="http://www.w3.org/2000/svg">
</g>
<g xmlns="http://www.w3.org/2000/svg">
</g>
<g xmlns="http://www.w3.org/2000/svg">
</g>
<g xmlns="http://www.w3.org/2000/svg">
</g>
<g xmlns="http://www.w3.org/2000/svg">
</g>
<g xmlns="http://www.w3.org/2000/svg">
</g>
<g xmlns="http://www.w3.org/2000/svg">
</g>
<g xmlns="http://www.w3.org/2000/svg">
</g>
<g xmlns="http://www.w3.org/2000/svg">
</g>
<g xmlns="http://www.w3.org/2000/svg">
</g>
<g xmlns="http://www.w3.org/2000/svg">
</g>
<g xmlns="http://www.w3.org/2000/svg">
</g>
<g xmlns="http://www.w3.org/2000/svg">
</g>
<g xmlns="http://www.w3.org/2000/svg">
</g>
<g xmlns="http://www.w3.org/2000/svg">
</g>
</g></svg>