<svg xmlns="http://www.w3.org/2000/svg" version="1.1" xmlns:xlink="http://www.w3.org/1999/xlink" xmlns:svgjs="http://svgjs.com/svgjs" width="512" height="512" x="0" y="0" viewBox="0 0 512 512" style="enable-background:new 0 0 512 512" xml:space="preserve" class=""><g>
<g xmlns="http://www.w3.org/2000/svg">
	<path style="" d="M129.167,318.762c-0.062,0-0.122,0-0.183-0.001c-8.786-0.1-15.829-7.303-15.73-16.088   c0.455-40.41-7.657-66.408-28.002-89.734c-34.712-39.798-37.593-71.34-36.222-86.6c1.742-19.378,11.158-36.022,27.985-49.47   c29.112-23.266,65.677-14.731,95.061-7.872c9.35,2.183,18.182,4.244,26.081,5.223c8.72,1.081,14.915,9.025,13.834,17.746   s-9.032,14.914-17.746,13.834c-9.577-1.186-19.656-3.539-29.403-5.814c-26.18-6.112-50.909-11.885-67.961,1.742   c-9.924,7.931-15.21,16.914-16.157,27.462c-1.562,17.37,8.83,40.272,28.509,62.835c32.268,36.997,36.225,76.877,35.84,111.009   C144.974,311.755,137.87,318.761,129.167,318.762z" fill="#ff8b5d" data-original="#ff8b5d" class=""></path>
	<path style="" d="M382.834,318.762c0.062,0,0.122,0,0.183-0.001c8.786-0.1,15.829-7.303,15.73-16.088   c-0.455-40.41,7.657-66.408,28.001-89.734c34.712-39.798,37.593-71.34,36.222-86.6c-1.742-19.378-11.158-36.022-27.985-49.47   c-29.112-23.266-65.677-14.731-95.061-7.872c-9.35,2.183-18.182,4.244-26.081,5.223c-8.72,1.081-14.915,9.025-13.834,17.746   c1.081,8.72,9.032,14.914,17.746,13.834c9.577-1.186,19.656-3.539,29.403-5.814c26.18-6.112,50.909-11.885,67.961,1.742   c9.924,7.931,15.21,16.914,16.157,27.462c1.562,17.37-8.83,40.272-28.509,62.835c-32.268,36.997-36.225,76.877-35.84,111.009   C367.027,311.755,374.132,318.761,382.834,318.762z" fill="#ff8b5d" data-original="#ff8b5d" class=""></path>
</g>
<path xmlns="http://www.w3.org/2000/svg" style="" d="M256,386.837l-125.077,37.125c7.903,11.732,16.961,24.089,27.281,37.125L256,486.543l97.796-25.457  c10.32-13.036,19.379-25.393,27.281-37.125L256,386.837z" fill="#efedee" data-original="#efedee"></path>
<path xmlns="http://www.w3.org/2000/svg" style="" d="M189.11,461.086c-10.32-13.036-19.379-25.393-27.281-37.125l109.625-32.537L256,386.838  l-125.077,37.125c7.903,11.732,16.961,24.089,27.281,37.125L256,486.544l15.453-4.022L189.11,461.086z" fill="#d4d2d3" data-original="#d4d2d3" class=""></path>
<path xmlns="http://www.w3.org/2000/svg" style="" d="M334.938,123.254L256,93.023l-78.938,30.23c-0.817,13.046-2.662,25.796-6.046,37.125L256,190.607  l84.984-30.23C337.6,149.05,335.755,136.3,334.938,123.254z" fill="#efedee" data-original="#efedee"></path>
<path xmlns="http://www.w3.org/2000/svg" style="" d="M201.923,160.378c3.384-11.328,5.229-24.077,6.046-37.125l63.485-24.312l-15.453-5.917l-78.938,30.23  c-0.817,13.047-2.662,25.797-6.046,37.125l84.984,30.231l15.453-5.497L201.923,160.378z" fill="#d4d2d3" data-original="#d4d2d3" class=""></path>
<path xmlns="http://www.w3.org/2000/svg" style="" d="M158.204,461.086c10.02,12.657,21.231,25.956,33.734,39.931c6.264,7,15.231,10.983,24.624,10.983  h78.876c9.393,0,18.361-3.982,24.624-10.983c12.504-13.974,23.715-27.274,33.734-39.931H158.204z" fill="#ff8b5d" data-original="#ff8b5d" class=""></path>
<g xmlns="http://www.w3.org/2000/svg">
	<path style="" d="M222.844,501.017c-12.504-13.974-23.715-27.274-33.734-39.931h-30.905   c10.02,12.657,21.231,25.956,33.734,39.931c6.264,7,15.231,10.983,24.624,10.983h30.905   C238.074,512,229.108,508.018,222.844,501.017z" fill="#ea6a3d" data-original="#ea6a3d"></path>
	<path style="" d="M128.983,318.761c0.062,0.001,0.122,0.001,0.183,0.001c8.703-0.001,15.807-7.006,15.906-15.732   c0.385-34.132-3.573-74.012-35.84-111.009c-0.42-0.482-0.83-0.964-1.242-1.446c-7.353,6.693-15.05,14.22-22.294,22.882   c20.014,23.194,28.011,49.104,27.558,89.215C113.155,311.458,120.197,318.662,128.983,318.761z" fill="#ea6a3d" data-original="#ea6a3d"></path>
	<path style="" d="M404.012,190.575c-0.412,0.482-0.822,0.965-1.242,1.446c-32.268,36.997-36.225,76.877-35.84,111.009   c0.099,8.725,7.203,15.731,15.906,15.732c0.062,0,0.122,0,0.183-0.001c8.786-0.1,15.829-7.303,15.73-16.088   c-0.452-40.111,7.544-66.02,27.558-89.215C419.062,204.795,411.364,197.268,404.012,190.575z" fill="#ea6a3d" data-original="#ea6a3d"></path>
</g>
<path xmlns="http://www.w3.org/2000/svg" style="" d="M381.078,423.962H130.923c-103.524-153.61-10.151-199.051,24.311-234.415  c7.234-7.425,12.315-17.554,15.783-29.17h169.966c3.469,11.614,8.549,21.744,15.783,29.17  C391.229,224.911,484.603,270.351,381.078,423.962z" fill="#ff8b5d" data-original="#ff8b5d" class=""></path>
<g xmlns="http://www.w3.org/2000/svg">
	<path style="" d="M186.14,189.547c7.234-7.426,12.315-17.555,15.783-29.17h-30.905   c-3.469,11.614-8.549,21.744-15.783,29.17c-34.462,35.364-127.835,80.804-24.311,234.415h30.905   C58.304,270.351,151.677,224.911,186.14,189.547z" fill="#ea6a3d" data-original="#ea6a3d"></path>
	<path style="" d="M317.756,105.799c9.577-1.186,19.656-3.54,29.403-5.814c6.221-1.453,12.358-2.882,18.332-4.04   c0.377-11.609,1.355-22.843,2.494-32.673c-9.736,1.456-19.224,3.663-28.06,5.726c-9.35,2.183-18.182,4.244-26.081,5.223   c-8.72,1.081-14.915,9.025-13.834,17.746C301.09,100.684,309.041,106.878,317.756,105.799z" fill="#ea6a3d" data-original="#ea6a3d"></path>
	<path style="" d="M194.246,105.799c8.714,1.08,16.665-5.114,17.746-13.834s-5.114-16.665-13.834-17.746   c-7.899-0.979-16.731-3.04-26.081-5.223c-8.836-2.062-18.323-4.271-28.06-5.726c1.139,9.831,2.117,21.065,2.494,32.673   c5.974,1.159,12.111,2.589,18.332,4.04C174.589,102.259,184.669,104.612,194.246,105.799z" fill="#ea6a3d" data-original="#ea6a3d"></path>
</g>
<path xmlns="http://www.w3.org/2000/svg" style="" d="M334.938,123.254H177.063c3.002-48.103-8.041-100.237-8.041-100.237h173.955  C342.978,23.017,331.936,75.151,334.938,123.254z" fill="#ff8b5d" data-original="#ff8b5d" class=""></path>
<path xmlns="http://www.w3.org/2000/svg" style="" d="M199.929,23.017h-30.905c0,0,11.041,52.133,8.04,100.236h30.905  C210.97,75.151,199.929,23.017,199.929,23.017z" fill="#ea6a3d" data-original="#ea6a3d"></path>
<g xmlns="http://www.w3.org/2000/svg">
	<path style="" d="M185.063,298.896c-4.268,0-7.726-3.459-7.726-7.726v-12.838c0-4.267,3.458-7.726,7.726-7.726   c4.268,0,7.726,3.459,7.726,7.726v12.838C192.79,295.436,189.331,298.896,185.063,298.896z" fill="#3a484a" data-original="#3a484a" class=""></path>
	<path style="" d="M326.937,298.896c-4.268,0-7.726-3.459-7.726-7.726v-12.838c0-4.267,3.458-7.726,7.726-7.726   c4.268,0,7.726,3.459,7.726,7.726v12.838C334.663,295.436,331.205,298.896,326.937,298.896z" fill="#3a484a" data-original="#3a484a" class=""></path>
	<path style="" d="M256,306.934c-11.14,0-21.596-4.65-28.683-12.759c-2.809-3.213-2.481-8.094,0.732-10.902   c3.211-2.807,8.093-2.481,10.901,0.732c4.153,4.751,10.367,7.476,17.049,7.476c6.683,0,12.897-2.725,17.048-7.475   c2.809-3.214,7.691-3.541,10.902-0.733c3.213,2.808,3.542,7.689,0.733,10.902C277.598,302.284,267.142,306.934,256,306.934z" fill="#3a484a" data-original="#3a484a" class=""></path>
</g>
<path xmlns="http://www.w3.org/2000/svg" style="" d="M351.672,0H160.329c-10.251,0-18.562,8.31-18.562,18.562l0,0c0,10.251,8.31,18.562,18.562,18.562  h191.344c10.251,0,18.562-8.31,18.562-18.562l0,0C370.235,8.31,361.925,0,351.672,0z" fill="#efedee" data-original="#efedee"></path>
<path xmlns="http://www.w3.org/2000/svg" style="" d="M182.974,18.563L182.974,18.563C182.974,8.31,191.285,0,201.536,0h-41.207  c-10.251,0-18.562,8.31-18.562,18.563l0,0c0,10.251,8.31,18.563,18.562,18.563h41.207C191.285,37.125,182.974,28.814,182.974,18.563  z" fill="#d4d2d3" data-original="#d4d2d3" class=""></path>
<g xmlns="http://www.w3.org/2000/svg">
</g>
<g xmlns="http://www.w3.org/2000/svg">
</g>
<g xmlns="http://www.w3.org/2000/svg">
</g>
<g xmlns="http://www.w3.org/2000/svg">
</g>
<g xmlns="http://www.w3.org/2000/svg">
</g>
<g xmlns="http://www.w3.org/2000/svg">
</g>
<g xmlns="http://www.w3.org/2000/svg">
</g>
<g xmlns="http://www.w3.org/2000/svg">
</g>
<g xmlns="http://www.w3.org/2000/svg">
</g>
<g xmlns="http://www.w3.org/2000/svg">
</g>
<g xmlns="http://www.w3.org/2000/svg">
</g>
<g xmlns="http://www.w3.org/2000/svg">
</g>
<g xmlns="http://www.w3.org/2000/svg">
</g>
<g xmlns="http://www.w3.org/2000/svg">
</g>
<g xmlns="http://www.w3.org/2000/svg">
</g>
</g></svg>